<?xml version="1.0" encoding="UTF-8" standalone="no"?>
<svg
   id="svg"
   version="1.1"
   width="1024"
   height="1024"
   viewBox="0 0 1024 1024"
   sodipodi:docname="Amul_official_logo.svg"
   inkscape:version="1.4 (e7c3feb1, 2024-10-09)"
   xmlns:inkscape="http://www.inkscape.org/namespaces/inkscape"
   xmlns:sodipodi="http://sodipodi.sourceforge.net/DTD/sodipodi-0.dtd"
   xmlns="http://www.w3.org/2000/svg"
   xmlns:svg="http://www.w3.org/2000/svg">
  <defs
     id="defs1" />
  <sodipodi:namedview
     id="namedview1"
     pagecolor="#ffffff"
     bordercolor="#000000"
     borderopacity="0.25"
     inkscape:showpageshadow="2"
     inkscape:pageopacity="0.0"
     inkscape:pagecheckerboard="0"
     inkscape:deskcolor="#d1d1d1"
     inkscape:zoom="0.76434157"
     inkscape:cx="621.44991"
     inkscape:cy="300.25843"
     inkscape:window-width="2560"
     inkscape:window-height="1314"
     inkscape:window-x="0"
     inkscape:window-y="31"
     inkscape:window-maximized="1"
     inkscape:current-layer="svg" />
  <rect
     style="fill:#ff0000;fill-opacity:1;stroke:none;stroke-width:0;stroke-linecap:round;stroke-linejoin:round;paint-order:stroke fill markers"
     id="rect1"
     width="1024"
     height="1024"
     x="-6.357829e-07"
     y="-6.357829e-07"
     ry="66.46067" />
  <path
     id="path1"
     style="display:inline;fill:#ffffff;stroke:none;stroke-width:4.06517"
     d="m 181.41674,356.75824 c -1.70757,0.0486 -3.44227,0.12288 -5.19069,0.29696 -14.22403,1.4106 -19.93865,5.64909 -26.99174,19.57639 -1.12989,2.22789 -3.71302,6.73903 -5.63564,10.08485 -1.92261,3.34558 -4.38558,7.85707 -5.48736,10.08478 -1.10558,2.23168 -4.18129,8.36567 -6.97032,13.49591 -6.58952,12.13458 -6.29429,16.22106 1.77963,18.5382 2.8171,0.80853 3.32484,0.50133 4.5975,-1.92811 5.45576,-10.40686 24.99644,-18.86531 33.81375,-14.68225 3.91053,1.85809 4.21265,3.82549 1.33474,9.195 -1.11394,2.08132 -2.07624,4.42232 -2.07624,5.19076 0,0.76846 -0.84293,3.01452 -1.92802,5.04265 -2.1952,4.09813 -6.66037,14.67925 -8.75004,20.91115 -0.75174,2.22762 -2.25685,5.94931 -3.41107,8.15684 -1.15874,2.21099 -2.07629,4.58632 -2.07629,5.33884 0,0.75178 -1.20832,3.78368 -2.52117,6.6737 -1.31742,2.89451 -3.05357,7.32297 -4.00422,9.93647 -3.8293,10.56137 -5.18165,11.57658 -19.87304,14.68237 -15.67525,3.31307 -27.02872,12.94345 -34.407025,29.21626 -3.467861,7.65068 -3.411413,7.61749 -2.224597,9.49158 0.959018,1.51168 5.160618,0.064 8.750032,-2.96576 2.1542,-1.80864 12.63551,-5.43599 18.83489,-6.52565 8.34174,-1.46774 9.97574,2.18666 5.48736,12.01288 -1.34174,2.93931 -3.83907,8.71949 -5.63566,12.90257 -4.63797,10.79301 -4.10462,10.49891 -18.68659,11.2713 -36.423944,1.93493 -56.630331,32.15834 -48.792703,73.11492 0.796544,4.15446 2.400597,9.41325 3.559338,11.56783 1.154176,2.15894 2.076288,4.16256 2.076288,4.59772 0,1.99637 8.689818,13.20068 11.271228,14.53406 5.012318,2.59371 6.537809,-2.35691 2.817877,-9.19497 -19.646984,-36.11899 10.436276,-69.52303 47.754552,-52.94532 3.06539,1.36149 6.28192,2.90517 7.1187,3.26272 1.42677,0.60757 4.3574,2.40469 13.7925,8.75012 2.16712,1.45963 5.82783,4.55369 8.15684,6.82181 10.48001,10.1995 8.77578,11.0778 39.30112,-21.20781 15.21183,-16.08589 15.17424,-20.9219 -0.14806,-15.5721 l -7.26706,2.52075 -6.37713,-3.11467 c -3.52025,-1.67036 -8.15374,-4.3895 -10.38145,-6.08055 -2.23167,-1.68721 -5.92921,-4.31979 -8.15677,-5.78381 -7.25234,-4.76856 -8.13233,-9.81973 -3.55943,-20.1696 1.02067,-2.31296 2.52113,-6.72691 3.41107,-9.78829 2.2848,-7.86206 6.72119,-12.48713 9.93656,-10.38135 8.48814,5.5613 38.0985,8.94766 67.03433,7.71187 15.89485,-0.68352 15.91923,-0.61483 20.9112,17.20354 1.01598,3.62197 2.67319,8.77312 3.55934,11.41952 4.22336,12.56141 4.90145,14.75656 6.67372,20.91119 2.43516,8.44343 5.75404,18.4762 8.15685,24.91545 1.04102,2.78912 2.36096,6.99798 2.96614,9.34328 1.15038,4.4474 5.37422,10.38148 7.41529,10.38148 0.65301,0 15.96152,-14.76292 33.96213,-32.77572 35.85073,-35.87917 36.43777,-36.48952 29.95782,-40.33924 l -3.26277,-1.92811 -5.19068,4.00384 c -5.80126,4.5856 -6.71291,4.78148 -9.93656,2.52117 -2.19895,-1.54069 -7.85289,-12.59814 -10.38137,-20.31791 -0.70618,-2.14229 -1.83019,-4.81868 -2.52118,-5.93263 -0.69098,-1.11786 -1.83398,-3.84896 -2.52117,-6.08068 -0.69099,-2.22805 -1.83407,-4.65011 -2.52126,-5.48766 -0.69098,-0.83754 -1.93924,-3.72053 -2.81779,-6.22878 -2.27648,-6.52032 -6.72787,-17.19799 -8.30514,-20.16964 -0.73656,-1.39392 -1.80971,-4.30993 -2.52118,-6.52565 -0.71377,-2.21568 -2.23385,-5.43224 -3.26276,-7.11868 -1.02891,-1.68277 -1.92422,-3.76021 -1.92793,-4.59772 -0.008,-0.83754 -1.29566,-4.36616 -2.96615,-7.71195 -1.66673,-3.3455 -3.11065,-6.57199 -3.11445,-7.26678 0,-0.69845 -1.04713,-3.43424 -2.37291,-6.08068 -1.32531,-2.6508 -3.61589,-7.3161 -5.04267,-10.38157 -8.36612,-17.97602 -19.68822,-40.14124 -23.72898,-46.27152 -1.51258,-2.29696 -4.01752,-6.1589 -5.63565,-8.60173 -19.09542,-28.88436 -40.23463,-42.25568 -65.84788,-41.52574 z m 725.9585,23.729 c -1.83851,0.0363 -3.54773,0.4404 -4.89387,1.18682 -1.39434,0.77222 -11.6884,10.82884 -22.83921,22.39423 -11.15072,11.56949 -21.45489,22.19028 -22.98743,23.58061 -8.12625,7.36623 0.27306,14.9882 9.49162,8.60181 8.03281,-5.56889 17.50072,-4.60305 20.31791,2.07616 1.65846,3.92704 1.23478,158.8931 -0.448,162.24683 -0.56192,1.11403 -2.2545,3.24523 -3.85578,4.74581 -3.84128,3.6015 -3.82251,3.86944 2.37269,8.89839 7.43155,6.03286 20.30455,17.84214 26.99174,24.61884 8.43529,8.55714 8.39672,8.4829 20.76288,-1.92811 10.54106,-8.87432 15.96092,-13.11808 26.84335,-21.2078 15.69972,-11.6751 15.64566,-11.63738 14.97895,-14.97895 -0.72918,-3.65098 -2.39403,-4.95761 -5.19074,-4.15274 -7.13844,2.05696 -10.09763,1.78133 -13.19932,-1.4831 l -2.96576,-3.26272 -0.59221,-88.83537 c -0.29624,-52.14387 -0.92421,-89.72465 -1.48156,-90.91163 -7.46266,-15.88566 -30.43734,-31.84361 -43.30535,-31.58916 z M 201.1414,434.02573 c 0.54366,-0.0555 1.33223,-0.0896 2.2246,0 2.18308,0.21333 3.57978,1.06923 4.4492,2.81771 0.69099,1.3905 1.83194,3.96501 2.66949,5.63571 0.83298,1.67509 2.24883,4.57498 3.11445,6.52565 0.86562,1.95158 2.47351,5.48386 3.55934,7.71192 2.69939,5.55673 5.94538,13.21455 8.15685,19.27974 1.02054,2.78443 3.27389,8.90419 5.04238,13.64421 4.28868,11.49226 4.44913,13.29629 0.59303,14.3857 -8.36612,2.36246 -47.77847,-3.1552 -52.94532,-7.41559 -1.26809,-1.04022 -0.48294,-6.08905 1.48306,-9.49159 0.63782,-1.11018 2.08806,-4.49446 3.26276,-7.56369 1.17086,-3.06517 3.25576,-8.52889 4.5975,-12.01276 1.34174,-3.48373 3.59714,-9.12217 4.89409,-12.60603 1.30074,-3.48374 2.99029,-7.66848 3.85596,-9.34332 0.86182,-1.6704 1.96211,-4.72226 2.3729,-6.67371 0.78362,-3.7137 1.03924,-4.73365 2.66949,-4.89386 z m 284.45118,32.47902 c -2.944,0.0981 -6.07006,1.05259 -10.3814,2.96576 -3.90229,1.73184 -8.29632,4.16427 -9.78824,5.33884 -1.4959,1.1793 -4.3692,3.35104 -6.37684,4.74581 -2.00832,1.39392 -7.30926,5.37374 -11.71618,8.89839 -10.01258,8.0125 -12.42739,8.09361 -16.31372,0.89003 -5.4269,-10.06537 -15.01143,-16.79202 -27.28831,-19.27987 -11.02468,-2.23531 -13.28102,-1.56417 -24.61884,7.41559 -3.17094,2.50795 -9.0366,7.01999 -12.90257,10.08486 -3.86572,3.06902 -9.0353,7.24399 -11.56789,9.19501 -9.30517,7.16271 -6.18016,12.60446 6.67381,11.56779 13.64671,-1.10165 14.9586,1.69643 14.97887,32.03413 0.0326,41.95665 -1.50575,50.43205 -9.63989,55.02161 -6.28875,3.54902 -6.0526,3.97184 11.12293,19.4281 4.95993,4.45952 9.9604,9.07857 11.12301,10.23313 16.24854,16.12655 18.26752,16.73848 27.58492,7.86018 3.37826,-3.21963 11.0306,-10.44369 17.05517,-16.01702 19.33803,-17.89082 18.8349,-17.30151 18.8349,-20.61457 0,-3.87414 -1.27872,-4.82402 -5.04269,-3.26272 -3.80885,1.57696 -8.29414,-0.10667 -9.93651,-3.70774 -0.7808,-1.71136 -1.18698,-13.60593 -1.18698,-37.52141 v -35.14837 l 2.66965,-3.41077 c 7.41107,-9.7117 22.02453,-9.24054 26.10189,0.89002 3.25589,8.08973 3.97525,22.44916 2.66965,51.46228 -1.30901,29.09849 -1.68192,30.75383 -7.56365,35.74178 l -3.11466,2.66965 5.04268,4.89387 c 4.52485,4.41852 9.09257,8.47181 18.98322,16.6103 1.69088,1.39051 3.96288,3.1663 4.89382,4.00384 14.40303,12.976 14.71048,13.06863 27.8816,0.59222 1.17461,-1.11787 6.51277,-5.93792 12.0128,-10.67802 24.56175,-21.15106 27.32523,-26.39629 14.08909,-26.84343 -10.03286,-0.3328 -10.66407,-3.27936 -10.23313,-44.19525 l 0.2944,-29.80949 2.8177,-4.30084 c 4.94703,-7.60999 12.17344,-9.97709 20.16965,-6.52566 10.56533,4.56128 10.98304,6.3343 10.38144,48.34782 -0.56192,39.57035 -1.08075,43.02362 -6.08069,45.97491 -5.19155,3.06091 -4.63343,5.98426 1.92811,11.12295 7.6506,6.00021 11.72664,9.37834 15.27552,12.30937 1.7152,1.41824 4.12331,3.33568 5.33884,4.15275 1.21941,0.81323 5.51193,4.11477 9.49158,7.4156 9.05724,7.51279 6.60007,8.81373 33.36888,-17.50008 20.10227,-19.76081 20.67588,-20.31228 20.02133,-23.58067 -0.99627,-4.9964 -2.17984,-5.6684 -5.63571,-3.11467 -3.79307,2.80491 -8.80222,2.96576 -10.23318,0.2944 -0.66816,-1.2561 -0.99712,-17.4237 -1.03808,-44.93679 l -0.14506,-42.86037 -3.26272,-7.86027 c -7.50823,-18.15095 -20.05035,-26.41685 -39.74609,-26.25015 -8.91495,0.0725 -12.87727,0.87765 -23.2841,4.89386 -7.25611,2.80107 -17.39921,10.02441 -24.32213,17.20355 -5.17103,5.36614 -8.32133,5.10873 -12.60608,-1.03808 -5.87034,-8.41899 -18.66594,-19.28192 -27.5849,-23.43241 -3.54517,-1.64992 -6.25156,-2.47253 -9.19501,-2.37269 z m 212.81933,5.63571 c -0.77013,0.0184 -1.49675,0.0188 -2.22464,0.14507 -1.67509,0.2944 -4.25131,1.55648 -5.78377,2.66965 -6.60996,4.80883 -18.74863,13.68005 -20.61452,15.12726 -6.04502,4.70784 -16.5522,12.53627 -18.98321,14.08908 -2.97131,1.90294 -3.73504,6.13385 -1.77963,9.78821 1.35765,2.54464 6.97365,4.44207 8.75004,2.96576 2.31722,-1.91872 8.54532,-2.88555 11.71618,-1.78006 5.82101,2.02795 5.93263,3.16502 5.93263,45.08506 v 38.11469 l -3.55883,4.00384 c -4.17109,4.61824 -4.24619,7.57427 -0.2944,9.93655 2.55659,1.52832 10.07415,6.62742 27.73321,18.83482 4.45952,3.08523 9.13941,6.33203 10.52974,7.26677 1.39392,0.93099 3.45344,2.55574 4.4489,3.55883 2.34197,2.35776 7.04201,2.23787 10.52975,-0.14507 7.84986,-5.37834 33.37958,-22.23693 36.33498,-24.0256 1.87392,-1.1345 4.28181,-2.752 5.33879,-3.70773 3.8656,-3.49952 8.7878,-2.31808 14.68228,3.55883 6.50061,6.48388 15.53494,14.44462 21.0595,18.53828 2.26048,1.6704 5.37681,4.08661 6.97063,5.33884 1.59744,1.2561 3.7376,2.22464 4.74581,2.22464 2.8864,0 45.97491,-43.50507 45.97491,-46.41984 0,-6.11789 -3.28021,-7.72404 -8.89843,-4.3008 -13.88254,8.46365 -16.90688,-0.3712 -16.90688,-49.08941 0,-39.33056 -0.31147,-42.24879 -6.08068,-50.72064 -7.88698,-11.60197 -18.25762,-17.09782 -32.33122,-17.20354 h -9.34332 l -10.23313,8.60172 c -5.60615,4.73976 -11.86351,9.89709 -13.94082,11.56792 -2.08128,1.67509 -5.23098,4.4003 -6.97063,5.93263 -1.74421,1.53216 -3.54816,2.66965 -4.00469,2.66965 -2.82923,0 -3.36896,6.60083 -0.89003,10.38144 2.92267,4.46788 3.07371,4.4512 8.30515,1.78005 7.19919,-3.6753 11.55218,-2.67733 14.68237,3.11467 2.752,5.09811 3.01526,64.30524 0.2944,70.00051 -6.49224,13.59804 -25.22752,18.19141 -35.00023,8.60173 -5.16267,-5.06547 -5.33884,-7.60081 -5.33884,-52.79693 v -41.52571 l -2.66965,-7.4156 c -4.80457,-13.20128 -20.63352,-25.04256 -32.18112,-24.76663 z" />
</svg>
